:SAMPLES-PER-SECOND 30
:FULLY-SPECIFIED
:DEGREES
155
root  -15.4347 39.8679 -28.3321 -0.803894 52.3968 -0.770508
RightUpLeg  5.15223 -8.4244 -12.0912
RightLeg  13.6228 10.9015 2.26315
RightFoot  -12.4421 -0.0260319 5.71587
RightToes  0.00048216 0.542163 -0.142577
Spine  19.3726 -5.78024 -6.93297
Spine1  11.6225 -11.1433 12.6213
HEad  -7.29123 -15.559 5.93815
LeftShoulder1  9.19028 -18.8376 -35.0278
LeftArm  31.8499 -55.4572 -49.2022
LeftForeArm  -16.4857 -22.2526 -6.0705
LeftHand  -0.25398 0.0180481 5.50724
RightShoulder  5.71566 11.0043 33.4493
RightArm  -19.7076 -3.3987 31.9228
RightForeArm  -10.1812 75.2909 57.0401
RightHand  -4.34314 10.1575 -32.0453
LeftUpLeg  -17.9779 11.8615 9.86195
LeftLeg  0.325634 33.1719 -6.91177
LeftFoot  0.157243 0.198246 -1.9716
LeftToes  1.06244e-005 4.65854e-005 -8.18505e-006
156
root  -13.6429 39.4544 -28.4096 -0.950607 52.0777 -0.0480194
RightUpLeg  6.28799 -5.29054 -14.4287
RightLeg  16.923 9.40027 2.43373
RightFoot  -13.8419 0.115315 9.2902
RightToes  0.00048216 0.542163 -0.142577
Spine  19.5476 -5.7542 -8.10101
Spine1  12.0769 -11.2466 12.1824
HEad  -6.68455 -14.9706 6.13903
LeftShoulder1  9.22637 -18.9442 -34.9925
LeftArm  30.9813 -55.1248 -48.7292
LeftForeArm  -16.5548 -22.044 -6.14316
LeftHand  -0.25398 0.0180481 5.50724
RightShoulder  5.58325 10.8615 32.9205
RightArm  -19.3645 -2.65038 31.8745
RightForeArm  -11.2601 75.23 56.7455
RightHand  -4.69716 10.9267 -32.9607
LeftUpLeg  -18.8755 14.3838 7.16152
LeftLeg  6.07319 30.8817 -4.15436
LeftFoot  1.61086 -0.0949639 0.659683
LeftToes  1.06244e-005 4.65854e-005 -8.18505e-006
157
root  -11.8191 39.0228 -28.5741 -0.497101 51.6677 1.30554
RightUpLeg  5.24822 -0.552761 -17.1676
RightLeg  23.4323 7.05709 3.17363
RightFoot  -12.8722 0.08983 15.5782
RightToes  0.00048216 0.542163 -0.142577
Spine  20.0233 -5.44224 -9.72926
Spine1  12.1866 -11.3895 12.4189
HEad  -6.37317 -14.1862 6.08289
LeftShoulder1  9.26636 -18.9514 -35.1542
LeftArm  29.8634 -54.9137 -48.8835
LeftForeArm  -16.2747 -22.0444 -6.11297
LeftHand  -0.25398 0.0180481 5.50724
RightShoulder  5.3579 10.6077 32.0228
RightArm  -18.9437 -1.795 31.5203
RightForeArm  -12.0575 75.2985 57.2957
RightHand  -4.99699 11.3859 -34.0255
LeftUpLeg  -21.6114 22.9148 0.766815
LeftLeg  14.0118 19.2351 0.675828
LeftFoot  3.76243 -0.694329 5.09024
LeftToes  1.06244e-005 4.65854e-005 -8.18505e-006
158
root  -10.0552 38.7329 -28.8097 0.392288 51.1183 3.3127
RightUpLeg  1.12884 3.4165 -19.8736
RightLeg  33.9357 4.19808 2.70685
RightFoot  -6.06405 -0.860278 18.4157
RightToes  0.00048216 0.542163 -0.142577
Spine  21.3174 -4.7235 -11.6148
Spine1  11.7948 -11.3657 13.1657
HEad  -6.66269 -13.4446 6.02898
LeftShoulder1  9.33486 -19.036 -35.2993
LeftArm  28.9063 -55.0694 -49.1616
LeftForeArm  -16.0895 -22.0532 -6.0858
LeftHand  -0.25398 0.0180481 5.50724
RightShoulder  5.1528 10.3698 31.1921
RightArm  -18.8572 -0.967589 31.044
RightForeArm  -12.0756 75.4583 58.4312
RightHand  -5.35533 12.0319 -35.0393
LeftUpLeg  -24.0207 29.6082 -5.67884
LeftLeg  19.9338 10.0597 4.21955
LeftFoot  3.16236 -1.10759 8.57723
LeftToes  1.06244e-005 4.65854e-005 -8.18505e-006
159
root  -8.39747 38.6102 -29.058 1.1412 50.5175 5.46945
RightUpLeg  -5.08139 7.97263 -21.6219
RightLeg  45.7343 1.0731 0.913874
RightFoot  5.62736 -1.9993 13.9354
RightToes  0.00048216 0.542163 -0.142577
Spine  23.2803 -3.92293 -13.0123
Spine1  11.3841 -11.0815 13.3061
HEad  -7.33928 -12.5552 5.68948
LeftShoulder1  9.40218 -19.2317 -35.2374
LeftArm  28.3066 -55.7232 -49.0264
LeftForeArm  -16.212 -21.9911 -6.10765
LeftHand  -0.25398 0.0180481 5.50724
RightShoulder  5.05209 10.2808 30.696
RightArm  -19.3024 -0.281705 30.8636
RightForeArm  -10.4597 75.7684 60.6606
RightHand  -5.73065 12.7809 -35.8825
LeftUpLeg  -22.9908 28.6205 -7.55846
LeftLeg  24.3977 11.6437 6.11327
LeftFoot  -0.672555 -0.878993 9.36999
LeftToes  1.06244e-005 4.65854e-005 -8.18505e-006
160
root  -6.82261 38.5553 -29.2531 1.48102 50.2163 7.02878
RightUpLeg  -11.4504 12.0644 -22.1374
RightLeg  55.5342 0.693979 0.747769
RightFoot  14.0861 -1.58712 7.29692
RightToes  0.00048216 0.542163 -0.142577
Spine  24.9608 -3.54617 -13.5371
Spine1  11.3409 -10.9127 12.6419
HEad  -7.61606 -10.7986 4.38185
LeftShoulder1  9.40408 -19.326 -35.0763
LeftArm  27.3534 -56.4513 -48.5528
LeftForeArm  -16.2084 -21.9859 -6.09985
LeftHand  -0.25398 0.0180481 5.50724
RightShoulder  5.0274 10.3236 30.3994
RightArm  -19.8462 0.532197 31.1163
RightForeArm  -8.06436 76.1345 63.6208
RightHand  -6.16745 13.573 -36.914
LeftUpLeg  -20.7562 28.8389 -9.04169
LeftLeg  26.7879 12.4555 7.08964
LeftFoot  -5.05628 -0.457504 8.88888
LeftToes  1.06244e-005 4.65854e-005 -8.18505e-006
